<?xml version="1.0" encoding="utf-8"?>
<!-- Generator: Adobe Illustrator 19.0.0, SVG Export Plug-In . SVG Version: 6.00 Build 0)  -->
<svg version="1.1" id="Layer_1" xmlns="http://www.w3.org/2000/svg" xmlns:xlink="http://www.w3.org/1999/xlink" x="0px" y="0px"
	 viewBox="0 0 256 256" style="enable-background:new 0 0 256 256;" xml:space="preserve">
<style type="text/css">
	.st0{fill:#B11116;}
</style>
<g id="XMLID_17_">
	<g id="XMLID_634_">
		<g id="XMLID_689_">
			<g id="XMLID_690_">
				<g id="XMLID_695_">
					<g id="XMLID_696_">
						<g id="XMLID_697_">
							<path id="XMLID_698_" class="st0" d="M61.5,138.4c-0.2,0-0.4,0-0.7-0.1c-17.2-6.6-18.4-28.1-16.6-38.5l0-0.1l0-0.1
								c0.1-8.7,7.3-15.7,16-15.7c0.1,0,0.3,0,0.4,0c0.1,0,10.3,2.2,21.7,2.2c11.4,0,19.8-2.1,19.9-2.1c0.1,0,0.3-0.1,0.5-0.1
								c8.7,0,15.8,7.1,16,15.7l0,0.1l0,0.1c0.4,2.6,3.8,25.5-13.8,38.3c-0.3,0.2-0.7,0.3-1.1,0.3c-0.6,0-1.1-0.3-1.5-0.8
								c-0.3-0.4-0.4-0.9-0.3-1.4s0.3-0.9,0.7-1.2c16.6-12,12.4-34.6,12.3-34.9c0-0.1,0-0.2,0-0.3c0-6.6-5.4-12.1-12-12.3l-0.1,0
								l-0.1,0c-1.5,0.4-9.7,2.2-20.4,2.2c-10.9,0-20.4-1.8-22.1-2.2l-0.1,0l-0.1,0c-6.6,0.2-12,5.7-12,12.3c0,0.1,0,0.2,0,0.3
								c0,0.3-4.7,27.4,14.3,34.7c0.5,0.2,0.8,0.5,1,1c0.2,0.5,0.2,1,0,1.4C63,137.9,62.3,138.4,61.5,138.4z"/>
						</g>
					</g>
				</g>
				<g id="XMLID_691_">
					<g id="XMLID_692_">
						<g id="XMLID_693_">
							<path id="XMLID_694_" class="st0" d="M92.9,183.5c-4,0-4.7-5.6-5.7-17.3c-1.3-14.5-2.8-22.8-6.4-22.8
								c-3.4,0-4.6,7.8-5.6,21.4c-0.8,12-1.5,18.8-6.2,18.8c-9.6,0-16.9-33-17.6-51c0-0.5,0.2-1,0.5-1.3c0.3-0.4,0.8-0.6,1.3-0.6
								c0,0,0,0,0,0c1.1,0,1.9,0.8,1.9,1.8c0.9,21.4,8.6,44.2,13,47.1l0.9,0.6l0.5-1c1.1-2.2,1.6-8.2,2-14.6
								c0.9-12.2,1.7-24.8,9.2-24.8c7.7,0,8.9,13.3,10.1,26.2c0.4,4.4,0.9,9.9,1.7,12.5l0.5,1.8l1.2-1.5c2-2.5,6.2-11,11.8-40.4
								c0.2-0.9,0.9-1.5,1.8-1.5c0.1,0,0.2,0,0.4,0c0.5,0.1,0.9,0.4,1.2,0.8c0.3,0.4,0.4,0.9,0.3,1.4c-2.5,12.9-5,23.2-7.3,30.5
								C99.2,179.2,96.3,183.5,92.9,183.5z"/>
						</g>
					</g>
				</g>
			</g>
		</g>
		<g id="XMLID_684_">
			<g id="XMLID_685_">
				<g id="XMLID_686_">
					<g id="XMLID_687_">
						<path id="XMLID_688_" class="st0" d="M168.8,87.5c-1,0-1.8-0.8-1.8-1.8s0.8-1.8,1.8-1.8h42.6c1,0,1.8,0.8,1.8,1.8
							s-0.8,1.8-1.8,1.8H168.8z"/>
					</g>
				</g>
			</g>
		</g>
		<g id="XMLID_679_">
			<g id="XMLID_680_">
				<g id="XMLID_681_">
					<g id="XMLID_682_">
						<path id="XMLID_683_" class="st0" d="M141.3,103c-1,0-1.8-0.8-1.8-1.8c0-1,0.8-1.8,1.8-1.8h70.2c1,0,1.8,0.8,1.8,1.8
							c0,1-0.8,1.8-1.8,1.8H141.3z"/>
					</g>
				</g>
			</g>
		</g>
		<g id="XMLID_674_">
			<g id="XMLID_675_">
				<g id="XMLID_676_">
					<g id="XMLID_677_">
						<path id="XMLID_678_" class="st0" d="M141.3,118.6c-1,0-1.8-0.8-1.8-1.8c0-1,0.8-1.8,1.8-1.8h70.2c1,0,1.8,0.8,1.8,1.8
							c0,1-0.8,1.8-1.8,1.8H141.3z"/>
					</g>
				</g>
			</g>
		</g>
		<g id="XMLID_669_">
			<g id="XMLID_670_">
				<g id="XMLID_671_">
					<g id="XMLID_672_">
						<path id="XMLID_673_" class="st0" d="M141.3,134.1c-1,0-1.8-0.8-1.8-1.8s0.8-1.8,1.8-1.8h70.2c1,0,1.8,0.8,1.8,1.8
							s-0.8,1.8-1.8,1.8H141.3z"/>
					</g>
				</g>
			</g>
		</g>
		<g id="XMLID_664_">
			<g id="XMLID_665_">
				<g id="XMLID_666_">
					<g id="XMLID_667_">
						<path id="XMLID_668_" class="st0" d="M141.3,149.6c-1,0-1.8-0.8-1.8-1.8s0.8-1.8,1.8-1.8h70.2c1,0,1.8,0.8,1.8,1.8
							s-0.8,1.8-1.8,1.8H141.3z"/>
					</g>
				</g>
			</g>
		</g>
		<g id="XMLID_657_">
			<g id="XMLID_658_">
				<g id="XMLID_659_">
					<g id="XMLID_660_">
						<path id="XMLID_661_" class="st0" d="M148.3,201.2c-9.2,0-16.6-7.5-16.6-16.6s7.5-16.6,16.6-16.6c9.2,0,16.6,7.5,16.6,16.6
							S157.5,201.2,148.3,201.2z M148.3,171.6c-7.1,0-12.9,5.8-12.9,12.9c0,7.1,5.8,12.9,12.9,12.9c7.1,0,12.9-5.8,12.9-12.9
							C161.2,177.4,155.4,171.6,148.3,171.6z"/>
					</g>
				</g>
			</g>
		</g>
		<g id="XMLID_652_">
			<g id="XMLID_653_">
				<g id="XMLID_654_">
					<g id="XMLID_655_">
						<path id="XMLID_656_" class="st0" d="M118.8,186.4c-0.6,0-1.2-0.3-1.5-0.8l-24.6-36.8c-0.3-0.4-0.4-0.9-0.3-1.4
							s0.4-0.9,0.8-1.2c0.3-0.2,0.7-0.3,1-0.3c0.6,0,1.2,0.3,1.5,0.8l24.1,36h13.8c1,0,1.8,0.8,1.8,1.8s-0.8,1.8-1.8,1.8H118.8z"/>
					</g>
				</g>
			</g>
		</g>
		<g id="XMLID_645_">
			<g id="XMLID_646_">
				<g id="XMLID_647_">
					<g id="XMLID_648_">
						<path id="XMLID_649_" class="st0" d="M148.3,89.7c-9.2,0-16.6-7.5-16.6-16.6s7.5-16.6,16.6-16.6c9.2,0,16.6,7.5,16.6,16.6
							S157.5,89.7,148.3,89.7z M148.3,60.1c-7.1,0-12.9,5.8-12.9,12.9S141.2,86,148.3,86c7.1,0,12.9-5.8,12.9-12.9
							S155.4,60.1,148.3,60.1z"/>
					</g>
				</g>
			</g>
		</g>
		<g id="XMLID_640_">
			<g id="XMLID_641_">
				<g id="XMLID_642_">
					<g id="XMLID_643_">
						<path id="XMLID_644_" class="st0" d="M75.2,110.7c-0.6,0-1.1-0.2-1.4-0.7c-0.6-0.8-0.5-1.9,0.3-2.6l43.6-35.8
							c0.3-0.3,0.7-0.4,1.2-0.4h14.8c1,0,1.8,0.8,1.8,1.8s-0.8,1.8-1.8,1.8h-14.1l-43,35.3C76,110.5,75.6,110.7,75.2,110.7z"/>
					</g>
				</g>
			</g>
		</g>
		<g id="XMLID_635_">
			<g id="XMLID_636_">
				<g id="XMLID_637_">
					<g id="XMLID_638_">
						<path id="XMLID_639_" class="st0" d="M72.6,128.5c-0.4,0-0.9-0.2-1.2-0.5L60,118.1c-0.7-0.6-0.8-1.6-0.4-2.3l4.4-7.4l-4.5-8.6
							c-0.2-0.4-0.3-0.9-0.1-1.3l3-11.1c0.2-0.8,0.9-1.4,1.8-1.4c0.2,0,0.3,0,0.5,0.1c0.5,0.1,0.9,0.4,1.1,0.9s0.3,0.9,0.2,1.4
							l-2.8,10.4l4.6,8.8c0.3,0.6,0.3,1.2,0,1.8l-4.1,7l10.2,8.9c0.4,0.3,0.6,0.8,0.6,1.3c0,0.5-0.1,1-0.4,1.3
							C73.6,128.2,73.1,128.5,72.6,128.5z"/>
					</g>
				</g>
			</g>
		</g>
	</g>
</g>
</svg>
