<?xml version="1.0" encoding="utf-8"?>
<!-- Generator: Adobe Illustrator 19.0.0, SVG Export Plug-In . SVG Version: 6.00 Build 0)  -->
<svg version="1.1" id="Layer_1" xmlns="http://www.w3.org/2000/svg" xmlns:xlink="http://www.w3.org/1999/xlink" x="0px" y="0px"
	 viewBox="0 0 256 256" style="enable-background:new 0 0 256 256;" xml:space="preserve">
<style type="text/css">
	.st0{opacity:0.8;}
	.st1{fill:#B11116;}
</style>
<g class="st0">
	<g>
		<g>
			<path class="st1" d="M130.6,205.9L130.6,205.9c-0.8,0-1.7,0-2.6,0c-0.9,0-1.7,0-2.6,0c-5.9,0-20.2-0.7-25.5-6.7
				c-12.8-14.6-21.1-39.6-21.4-40.7c-0.3-0.9,0.1-1.9,0.9-2.4c0.8-0.5,21-12.2,48.6-12.2s47.8,11.7,48.6,12.2
				c0.8,0.5,1.2,1.5,0.9,2.4c-0.3,1.1-8.6,26.1-21.4,40.7C150.8,205.2,136.5,205.9,130.6,205.9z M128,201.8
				C128,201.8,128,201.8,128,201.8c0.9,0,1.7,0,2.6,0c11,0,19.6-2,22.5-5.3c10.5-11.9,18-32,20.1-37.7c-5-2.6-22.7-10.8-45.1-10.8
				c-22.5,0-40.1,8.2-45.1,10.8c2,5.7,9.6,25.8,20.1,37.7c2.9,3.3,11.5,5.3,22.5,5.3C126.3,201.8,127.1,201.8,128,201.8
				C128,201.8,128,201.8,128,201.8z"/>
		</g>
	</g>
	<g>
		<g>
			<path class="st1" d="M128,139.1c-17.6,0-31.9-14.3-31.9-31.9c0-1.1,0.9-2,2-2c1.1,0,2,0.9,2,2c0,15.3,12.5,27.8,27.8,27.8
				c15.3,0,27.8-12.5,27.8-27.8c0-2.4-0.3-4.8-0.9-7.1c-0.3-1.1,0.4-2.2,1.4-2.5c1.1-0.3,2.2,0.4,2.5,1.4c0.7,2.6,1,5.4,1,8.1
				C159.9,124.8,145.6,139.1,128,139.1z"/>
		</g>
	</g>
	<g>
		<g>
			<path class="st1" d="M157.8,102.9c-0.8,0-1.5-0.4-1.8-1.2c-0.4-0.5-5-6.5-28-6.5c-23.9,0-28,6.4-28,6.4c-0.4,0.8-1.3,1.3-2.3,1.1
				c-0.9-0.2-1.6-1-1.6-2V59.7c0-0.5,0.2-1.1,0.6-1.4C97,57.9,104.4,51,128,51c23.6,0,31,6.9,31.3,7.2c0.4,0.4,0.6,0.9,0.6,1.4v41.1
				c0,1-0.7,1.9-1.6,2.1C158.1,102.8,158,102.9,157.8,102.9z M128,91.2c15.8,0,23.8,2.7,27.8,5.1V60.6c-2.1-1.4-9.8-5.6-27.8-5.6
				c-18,0-25.7,4.2-27.8,5.6v35.7C104.2,93.9,112.2,91.2,128,91.2z"/>
		</g>
	</g>
	<g>
		<g>
			<path class="st1" d="M132.1,87.7L132.1,87.7h-8.2c-1.1,0-2-0.9-2-2v-6.1h-6.1c-1.1,0-2-0.9-2-2v-8.2c0-0.5,0.2-1,0.6-1.4
				c0.4-0.4,0.9-0.6,1.4-0.6l0,0l6.1,0l0-6.1c0-1.1,0.9-2,2-2h8.2c1.1,0,2,0.9,2,2v6.1l6.1,0c1.1,0,2,0.9,2,2v8.2c0,1.1-0.9,2-2,2
				h-6.1l0,5.9c0,0.1,0,0.2,0,0.3C134.1,86.8,133.2,87.7,132.1,87.7z M125.9,83.6h4.1l0-6.1c0-0.5,0.2-1,0.6-1.4
				c0.4-0.4,0.9-0.6,1.4-0.6h6.1v-4.1l-6.1,0c-1.1,0-2-0.9-2-2v-6.1h-4.1l0,6.1c0,1.1-0.9,2-2,2l0,0h-6.1v4.1h6.1c1.1,0,2,0.9,2,2
				V83.6z"/>
		</g>
	</g>
</g>
</svg>
