<?xml version="1.0" encoding="utf-8"?>
<!-- Generator: Adobe Illustrator 19.0.0, SVG Export Plug-In . SVG Version: 6.00 Build 0)  -->
<svg version="1.1" id="Layer_1" xmlns="http://www.w3.org/2000/svg" xmlns:xlink="http://www.w3.org/1999/xlink" x="0px" y="0px"
	 viewBox="-258 74.4 442.7 413.6" style="enable-background:new -258 74.4 442.7 413.6;" xml:space="preserve">
<style type="text/css">
	.st0{fill:#B01117;}
	.st1{fill:#404041;}
	.st2{opacity:0.67;fill:none;stroke:#000000;stroke-width:0.3735;stroke-miterlimit:10;enable-background:new    ;}
	.st3{opacity:0.67;fill:none;stroke:#AFB0B0;stroke-width:0.3735;stroke-miterlimit:10;enable-background:new    ;}
	.st4{opacity:0.67;fill:none;stroke:#000000;stroke-miterlimit:10;enable-background:new    ;}
	.st5{fill:#D62027;}
	.st6{fill:#333333;}
</style>
<g id="XMLID_139_">
	<path id="XMLID_148_" class="st0" d="M-5.6,256.5h-14.1h-0.7h-0.7h-5.2c-0.4,0-0.7,0.3-0.7,0.7v4.1v0.7v0.7v5v0.7v0.7v4.1v0.7v0.7
		v5v0.7v0.7v4.1c0,0.4,0.3,0.7,0.7,0.7h5.2h0.7h0.7h14.1c0.4,0,0.7-0.3,0.7-0.7v-3.7c0-0.4-0.3-0.7-0.7-0.7h-14.1
		c-0.4,0-0.7-0.3-0.7-0.7v-5c0-0.4,0.3-0.7,0.7-0.7h10.4c0.4,0,0.7-0.3,0.7-0.7v-4.1c0-0.4-0.3-0.7-0.7-0.7h-10.4
		c-0.4,0-0.7-0.3-0.7-0.7v-5c0-0.4,0.3-0.7,0.7-0.7h14.1c0.4,0,0.7-0.3,0.7-0.7v-4.1C-4.9,256.8-5.2,256.5-5.6,256.5"/>
	<path id="XMLID_147_" class="st0" d="M20.4,256.5h-5.2c-0.4,0-0.7,0.3-0.7,0.7v15.5c0,0.4-0.2,0.4-0.3,0.1L6,257.2l-0.1-0.1
		c-0.2-0.4-0.7-0.7-1.1-0.7h-5.2c-0.4,0-0.7,0.3-0.7,0.7v28.3c0,0.4,0.3,0.7,0.7,0.7h5.2c0.4,0,0.7-0.3,0.7-0.7v-15.5
		c0-0.4,0.2-0.4,0.3-0.1l8.2,15.7c0.2,0.4,0.7,0.7,1.1,0.7h5.2c0.4,0,0.7-0.3,0.7-0.7v-28.3C21.2,256.8,20.8,256.5,20.4,256.5"/>
	<path id="XMLID_146_" class="st0" d="M-87.5,256.5h-5.2c-0.4,0-0.9,0.3-1.1,0.7l-9.4,17.8c-0.2,0.4-0.5,0.4-0.7,0l-9.4-17.8
		c-0.2-0.4-0.7-0.7-1.1-0.7h-5.2c-0.4,0-0.7,0.3-0.7,0.7v28.3c0,0.4,0.3,0.7,0.7,0.7h5.2c0.4,0,0.7-0.3,0.7-0.7V270
		c0-0.4,0.2-0.4,0.3-0.1l0.1,0.1l8.2,15.6c0.2,0.4,0.7,0.7,1.1,0.7h0.7c0.4,0,0.9-0.3,1.1-0.7L-94,270l0.1-0.1
		c0.2-0.4,0.3-0.3,0.3,0.1v15.5c0,0.4,0.3,0.7,0.7,0.7h5.2c0.4,0,0.7-0.3,0.7-0.7v-28.3C-86.7,256.8-87.1,256.5-87.5,256.5"/>
	<path id="XMLID_145_" class="st0" d="M46.5,256.5H25.7c-0.4,0-0.7,0.3-0.7,0.7v4.1c0,0.4,0.3,0.7,0.7,0.7H32c0.4,0,0.7,0.3,0.7,0.7
		v22.7c0,0.4,0.3,0.7,0.7,0.7h5.2c0.4,0,0.7-0.3,0.7-0.7v-22.7c0-0.4,0.3-0.7,0.7-0.7h6.3c0.4,0,0.7-0.3,0.7-0.7v-4.1
		C47.2,256.8,46.9,256.5,46.5,256.5"/>
	<path id="XMLID_144_" class="st0" d="M-27.9,286.1c0,0-0.1,0-0.2-0.1c0,0-3.1-0.7-5.6-1.6c-0.3-0.1-0.6-0.2-0.9-0.3
		c-0.7-0.3-1.4-0.6-2.2-0.9c-1-0.4-1.9-0.9-2.9-1.4c-0.7-0.4-1.3-0.7-2-1.1c-0.3-0.2-0.6-0.4-0.9-0.6c-0.2-0.1-0.3-0.2-0.5-0.3
		c-2.7-1.7-5.1-3.5-7.2-5.4c-1.8-1.6-3.3-3.3-4.6-4.9c-0.8-1-1.5-2-2.1-3s-1.1-2-1.4-3c-1.1-2.9-1.1-5.5,0.1-7.4
		c1.5-2.3,4.5-3.4,8.5-3.3c2.2,0,4.6,0.4,7.2,1.2c-9.5-3.9-18-3.9-21,0.7c-2.1,3.4-0.7,8.5,3.2,13.7c1,1.3,2.1,2.6,3.4,3.9
		c0.8,0.8,1.6,1.5,2.4,2.2c1.3,1.2,2.8,2.3,4.3,3.4c0.3,0.2,0.4,0.3,0.4,0.3c0.3,0.2,0.3,0.2,0.1,0.2c-0.2-0.1-0.3-0.2-0.5-0.3
		c-1-0.5-1.9-1.1-2.9-1.7c-0.3-0.2-0.6-0.4-0.8-0.5c-0.4-0.2-0.7-0.5-1.1-0.7c-0.4-0.3-0.9-0.6-1.3-1l0,0c-0.2-0.1-0.4-0.3-0.6-0.4
		v11.9c0,0.4,0.3,0.7,0.7,0.7h10.4c2.6,0,5.1-0.7,7.2-1.9c0.4-0.1,0.8-0.1,1.1,0l0,0c0.2,0.1,0.9,0.3,1.6,0.5
		c0.4,0.1,0.8,0.2,1.2,0.3c2.6,0.7,5,1,7.2,1C-27.6,286.2-27.7,286.2-27.9,286.1"/>
	<path id="XMLID_141_" class="st1" d="M-42.1,254.9c-6.9-2-12.6-1.6-14.8,1.6l0,0l0,0l0,0c0,0,0,0.1-0.1,0.1l0,0
		c-1,1.5-1.1,3.4-0.5,5.6c0.1,0.5,0.3,1.1,0.6,1.6c0.6,1.4,1.4,2.8,2.5,4.3c1.2,1.6,2.6,3.2,4.2,4.8c2.3,2.2,5.1,4.4,8.2,6.4
		c0.2,0.1,0.3,0.2,0.5,0.3c0.6,0.4,1.2,0.7,1.7,1c0.9,0.5,1.8,1,2.8,1.5c0.3,0.2,0.7,0.3,1,0.5c0.5,0.2,0.9,0.4,1.4,0.6
		c0.3,0.1,0.6,0.2,0.8,0.3c2,0.8,4,1.5,5.9,1.9c-0.1,0-0.3-0.1-0.4-0.1c0,0-0.1-0.1-0.3-0.1c0,0-2.9-1-5.2-2.1
		c-0.3-0.1-0.6-0.3-0.8-0.4c-0.2-0.1-0.4-0.2-0.5-0.3c-0.3-0.1-0.4-0.3-0.4-0.3l0,0c0.3-0.3,0.6-0.6,0.9-1c2.3-2.6,3.7-6.1,3.7-9.8
		c0-3.8-1.4-7.2-3.7-9.8c-2.7-3.1-6.7-5-11.2-5h-0.7h-3h-0.7H-51h-2.2H-54c0.2-0.2,0.5-0.4,0.7-0.6
		C-50.9,254.1-46.9,253.8-42.1,254.9 M-50.3,262.6c0-0.3,0.3-0.6,0.7-0.6h3.7c5.1,0,9.3,4.2,9.3,9.3c0,3.3-1.7,6.2-4.3,7.8
		c-3.8-2.6-7-5.4-9.5-8.2v-8.3H-50.3z"/>
	<path id="XMLID_140_" class="st0" d="M-61.4,280.7h-14.1c-0.4,0-0.7-0.3-0.7-0.7v-5c0-0.4,0.3-0.7,0.7-0.7h10.4
		c0.4,0,0.7-0.3,0.7-0.7v-4.1c0-0.4-0.3-0.7-0.7-0.7h-10.4c-0.4,0-0.7-0.3-0.7-0.7v-5c0-0.4,0.3-0.7,0.7-0.7h8.4
		c0.3,0,0.5-0.2,0.6-0.5c-0.6-1.6-0.9-3.2-0.9-4.6c-0.1-0.3-0.4-0.5-0.7-0.5h-14.1c-0.4,0-0.7,0.3-0.7,0.7v28.3
		c0,0.4,0.3,0.7,0.7,0.7h20.8c0.4,0,0.7-0.3,0.7-0.7v-4.4C-60.7,281-61,280.7-61.4,280.7"/>
</g>
<g id="XMLID_2_">
	<path id="XMLID_137_" class="st1" d="M-119.6,306.7l0.4-0.5c0.7,0.8,1.7,1.3,2.8,1.3c1.5,0,2.4-0.8,2.4-1.9c0-1.2-0.8-1.6-1.7-2
		l-1.5-0.7c-0.8-0.4-2-1-2-2.4c0-1.4,1.2-2.4,2.8-2.4c1.2,0,2.1,0.5,2.7,1.2l-0.4,0.4c-0.6-0.6-1.3-1-2.3-1c-1.3,0-2.1,0.7-2.1,1.7
		c0,1.1,1,1.5,1.7,1.9l1.5,0.6c1.1,0.5,2,1.1,2,2.6s-1.2,2.6-3.1,2.6C-117.7,308.1-118.8,307.5-119.6,306.7z"/>
	<path id="XMLID_134_" class="st1" d="M-111.8,303.1c0-3,1.7-5,4-5s4,1.9,4,5c0,3.1-1.7,5-4,5S-111.8,306.2-111.8,303.1z
		 M-104.5,303.1c0-2.7-1.3-4.4-3.3-4.4s-3.3,1.7-3.3,4.4c0,2.7,1.3,4.4,3.3,4.4C-105.9,307.5-104.5,305.8-104.5,303.1z"/>
	<path id="XMLID_132_" class="st1" d="M-101.6,298.3h0.7v9.1h4.5v0.6h-5.1L-101.6,298.3L-101.6,298.3z"/>
	<path id="XMLID_130_" class="st1" d="M-95.2,304.2v-5.9h0.7v5.9c0,2.6,1.2,3.3,2.6,3.3c1.4,0,2.6-0.8,2.6-3.3v-5.9h0.6v5.9
		c0,3-1.6,3.9-3.3,3.9C-93.6,308.1-95.2,307.3-95.2,304.2z"/>
	<path id="XMLID_128_" class="st1" d="M-83.8,298.9h-3.1v-0.6h6.8v0.6h-3.1v9.1h-0.7v-9.1H-83.8z"/>
	<path id="XMLID_126_" class="st1" d="M-78.2,298.3h0.7v9.7h-0.7V298.3z"/>
	<path id="XMLID_123_" class="st1" d="M-75.3,303.1c0-3,1.7-5,4-5s4,1.9,4,5c0,3.1-1.7,5-4,5S-75.3,306.2-75.3,303.1z M-68,303.1
		c0-2.7-1.3-4.4-3.3-4.4s-3.3,1.7-3.3,4.4c0,2.7,1.3,4.4,3.3,4.4S-68,305.8-68,303.1z"/>
	<path id="XMLID_121_" class="st1" d="M-65.1,298.3h0.7l4.1,6.8l1.1,1.9h0.1c0-0.9-0.1-1.9-0.1-2.8v-5.9h0.6v9.7h-0.7l-4.1-6.8
		l-1.1-1.9h-0.1c0,0.9,0.1,1.8,0.1,2.7v6h-0.6V298.3z"/>
	<path id="XMLID_119_" class="st1" d="M-56.5,306.7l0.4-0.5c0.7,0.8,1.7,1.3,2.8,1.3c1.5,0,2.4-0.8,2.4-1.9c0-1.2-0.8-1.6-1.7-2
		l-1.5-0.7c-0.8-0.4-2-1-2-2.4c0-1.4,1.2-2.4,2.8-2.4c1.2,0,2.1,0.5,2.7,1.2l-0.4,0.4c-0.6-0.6-1.3-1-2.3-1c-1.3,0-2.1,0.7-2.1,1.7
		c0,1.1,1,1.5,1.7,1.9l1.5,0.6c1.1,0.5,2,1.1,2,2.6s-1.2,2.6-3.1,2.6C-54.7,308.1-55.8,307.5-56.5,306.7z"/>
	<path id="XMLID_117_" class="st1" d="M-45.2,298.3h5.3v0.6h-4.6v3.8h3.9v0.6h-3.9v4.6h-0.7V298.3z"/>
	<path id="XMLID_114_" class="st1" d="M-39,303.1c0-3,1.7-5,4-5s4,1.9,4,5c0,3.1-1.7,5-4,5S-39,306.2-39,303.1z M-31.7,303.1
		c0-2.7-1.3-4.4-3.3-4.4s-3.3,1.7-3.3,4.4c0,2.7,1.3,4.4,3.3,4.4S-31.7,305.8-31.7,303.1z"/>
	<path id="XMLID_111_" class="st1" d="M-28.8,298.3h2.8c1.9,0,3.2,0.7,3.2,2.5c0,1.5-1,2.4-2.5,2.6l2.7,4.5h-0.8l-2.6-4.4h-2.1v4.4
		h-0.7L-28.8,298.3L-28.8,298.3z M-26.2,303c1.7,0,2.7-0.7,2.7-2.1c0-1.5-1-2-2.7-2h-1.9v4.1H-26.2z"/>
	<path id="XMLID_108_" class="st1" d="M-17.9,298.3h2.2c3,0,4.4,1.9,4.4,4.8c0,2.9-1.4,4.9-4.4,4.9H-18v-9.7H-17.9z M-15.7,307.4
		c2.6,0,3.7-1.8,3.7-4.3s-1.1-4.2-3.7-4.2h-1.5v8.5H-15.7z"/>
	<path id="XMLID_106_" class="st1" d="M-9,298.3h5.3v0.6h-4.6v3.6h3.9v0.6h-3.9v4.2h4.8v0.6H-9V298.3z"/>
	<path id="XMLID_104_" class="st1" d="M-1.5,298.3h0.7l4.1,6.8l1.1,1.9h0.1c0-0.9-0.1-1.9-0.1-2.8v-5.9H5v9.7H4.3l-4.1-6.8l-1.1-1.9
		H-1c0,0.9,0.1,1.8,0.1,2.7v6h-0.6V298.3z"/>
	<path id="XMLID_102_" class="st1" d="M9.9,298.9H6.8v-0.6h6.8v0.6h-3.1v9.1H9.8v-9.1H9.9z"/>
	<path id="XMLID_100_" class="st1" d="M15.5,298.3h0.7v9.7h-0.7V298.3z"/>
	<path id="XMLID_98_" class="st1" d="M18.3,306.7l0.4-0.5c0.7,0.8,1.7,1.3,2.8,1.3c1.5,0,2.4-0.8,2.4-1.9c0-1.2-0.8-1.6-1.7-2
		l-1.5-0.7c-0.8-0.4-2-1-2-2.4c0-1.4,1.2-2.4,2.8-2.4c1.2,0,2.1,0.5,2.7,1.2l-0.4,0.4c-0.6-0.6-1.3-1-2.3-1c-1.3,0-2.1,0.7-2.1,1.7
		c0,1.1,1,1.5,1.7,1.9l1.5,0.6c1.1,0.5,2,1.1,2,2.6s-1.2,2.6-3.1,2.6C20.1,308.1,19,307.5,18.3,306.7z"/>
	<path id="XMLID_96_" class="st1" d="M28.4,298.9h-3.1v-0.6h6.8v0.6H29v9.1h-0.7v-9.1H28.4z"/>
	<path id="XMLID_93_" class="st1" d="M34,298.3h2.8c1.9,0,3.2,0.7,3.2,2.5c0,1.5-1,2.4-2.5,2.6l2.7,4.5h-0.8l-2.6-4.4h-2.1v4.4H34
		V298.3z M36.6,303c1.7,0,2.7-0.7,2.7-2.1c0-1.5-1-2-2.7-2h-1.9v4.1H36.6z"/>
	<path id="XMLID_91_" class="st1" d="M43.6,304l-2.9-5.7h0.7l1.5,3c0.3,0.7,0.6,1.4,1,2.1H44c0.4-0.7,0.7-1.4,1-2.1l1.5-3h0.7
		l-2.9,5.7v3.9h-0.7L43.6,304L43.6,304z"/>
</g>
<polygon id="XMLID_314_" class="st2" points="51.9,231.1 -20.3,169.3 -21.6,138.3 "/>
<polygon id="XMLID_313_" class="st2" points="-20.3,169.3 -94.5,173.8 -21.6,138.3 "/>
<polygon id="XMLID_312_" class="st2" points="-152.3,321.1 -188.8,336.5 -94.5,173.8 "/>
<polygon id="XMLID_311_" class="st2" points="-188.8,336.5 -156.4,215.6 -94.5,173.8 "/>
<polygon id="XMLID_310_" class="st2" points="-21.6,138.3 -94.5,173.8 -86.2,98.8 "/>
<polygon id="XMLID_309_" class="st2" points="-94.5,173.8 -156.4,215.6 -86.2,98.8 "/>
<polygon id="XMLID_308_" class="st2" points="-21.6,138.3 47.4,82.2 51.9,231.1 "/>
<polygon id="XMLID_307_" class="st2" points="-21.6,138.3 -86.2,98.8 47.4,82.2 "/>
<polygon id="XMLID_306_" class="st2" points="-86.2,98.8 -128.4,76.2 47.4,82.2 "/>
<polygon id="XMLID_305_" class="st2" points="-86.2,98.8 -156.4,215.6 -153.1,131.6 "/>
<polygon id="XMLID_304_" class="st3" points="-86.2,98.8 -153.1,131.6 -128.4,76.2 "/>
<polygon id="XMLID_303_" class="st2" points="-153.1,131.6 -197.5,175 -128.4,76.2 "/>
<polygon id="XMLID_302_" class="st2" points="-153.1,131.6 -203.1,203.1 -156.4,215.6 "/>
<polygon id="XMLID_301_" class="st2" points="-153.1,131.6 -203.1,203.1 -197.5,175 "/>
<polygon id="XMLID_300_" class="st4" points="-203.1,203.1 -252.1,218.4 -197.5,175 "/>
<polygon id="XMLID_299_" class="st2" points="-156.4,215.6 -206.9,253.5 -203.1,203.1 "/>
<polygon id="XMLID_298_" class="st2" points="-206.9,253.5 -252.1,218.4 -203.1,203.1 "/>
<polygon id="XMLID_297_" class="st2" points="-206.9,253.5 -224.2,344 -156.4,215.6 "/>
<polygon id="XMLID_296_" class="st2" points="-206.9,253.5 -224.2,344 -252.1,218.4 "/>
<polygon id="XMLID_295_" class="st2" points="-156.4,215.6 -224.2,344 -188.8,336.5 "/>
<polygon id="XMLID_294_" class="st2" points="51.9,231.1 49.2,117.1 47.4,82.2 "/>
<polygon id="XMLID_293_" class="st2" points="51.9,231.1 86.6,185.2 49.2,117.1 "/>
<polygon id="XMLID_292_" class="st2" points="86.6,185.2 104.8,139.1 49.2,117.1 "/>
<polygon id="XMLID_291_" class="st2" points="86.6,185.2 82.7,295.9 51.9,231.1 "/>
<polygon id="XMLID_289_" class="st2" points="-43.6,383.6 -85.1,421 -152.3,321.1 "/>
<polygon id="XMLID_288_" class="st2" points="-85.1,421 -188.8,336.5 -152.3,321.1 "/>
<polygon id="XMLID_287_" class="st2" points="-85.1,421 -115.4,442.6 -188.8,336.5 "/>
<polygon id="XMLID_286_" class="st2" points="-188.8,336.5 -224.2,344 -115.4,442.6 "/>
<polygon id="XMLID_285_" class="st2" points="-85.1,421 -6.6,406.7 -43.6,383.6 "/>
<polygon id="XMLID_284_" class="st2" points="-6.6,406.7 51.3,329.8 -43.6,383.6 "/>
<polygon id="XMLID_283_" class="st2" points="51.3,329.8 46.5,423.7 82.7,295.9 "/>
<polygon id="XMLID_282_" class="st2" points="46.5,423.7 25.7,380.6 51.3,329.8 "/>
<polygon id="XMLID_281_" class="st2" points="25.7,380.6 -6.6,406.7 51.3,329.8 "/>
<polygon id="XMLID_280_" class="st2" points="46.5,423.7 25.7,380.6 -6.6,406.7 "/>
<polygon id="XMLID_279_" class="st2" points="-6.6,406.7 -17.6,472.2 46.5,423.7 "/>
<polygon id="XMLID_278_" class="st2" points="-17.6,472.2 -85.1,421 -6.6,406.7 "/>
<polygon id="XMLID_277_" class="st2" points="-17.6,472.2 -115.4,442.6 -85.1,421 "/>
<polygon id="XMLID_276_" class="st2" points="82.7,295.9 107.3,308.1 86.6,185.2 "/>
<polygon id="XMLID_275_" class="st2" points="107.3,308.1 125.1,270.7 86.6,185.2 "/>
<polygon id="XMLID_274_" class="st2" points="125.1,270.7 120.3,224 86.6,185.2 "/>
<polygon id="XMLID_273_" class="st2" points="120.3,224 104.8,139.1 86.6,185.2 "/>
<polygon id="XMLID_272_" class="st2" points="120.3,224 177.5,202.1 104.8,139.1 "/>
<polygon id="XMLID_271_" class="st2" points="120.3,224 125.1,270.7 177.5,202.1 "/>
<polygon id="XMLID_270_" class="st2" points="125.1,270.7 146.3,303 177.5,202.1 "/>
<polygon id="XMLID_269_" class="st2" points="107.3,308.1 82.7,295.9 46.5,423.7 "/>
<polygon id="XMLID_268_" class="st2" points="107.3,308.1 125.1,270.7 146.3,303 "/>
<polygon id="XMLID_267_" class="st2" points="146.3,303 140.7,369.9 107.3,308.1 "/>
<polygon id="XMLID_266_" class="st2" points="140.7,369.9 46.5,423.7 107.3,308.1 "/>
<polygon id="XMLID_265_" class="st2" points="46.5,423.7 88.6,448.9 140.7,369.9 "/>
<polygon id="XMLID_264_" class="st2" points="88.6,448.9 42.4,486.6 46.5,423.7 "/>
<polygon id="XMLID_263_" class="st2" points="46.5,423.7 -17.6,472.2 42.4,486.6 "/>
<polygon id="XMLID_262_" class="st2" points="-17.6,472.2 -115.4,442.6 42.4,486.6 "/>
<polygon id="XMLID_261_" class="st2" points="-115.4,442.6 -121,482 42.4,486.6 "/>
<polygon id="XMLID_260_" class="st2" points="-115.4,442.6 -216.2,428.4 -121,482 "/>
<polygon id="XMLID_259_" class="st2" points="-115.4,442.6 -216.2,428.4 -224.2,344 "/>
<polygon id="XMLID_258_" class="st2" points="-216.2,428.4 -241.8,368.2 -224.2,344 "/>
<polygon id="XMLID_257_" class="st2" points="-224.2,344 -241.8,368.2 -252.1,218.4 "/>
<circle id="XMLID_256_" class="st5" cx="47.8" cy="82.3" r="2.9"/>
<circle id="XMLID_255_" class="st5" cx="-216.3" cy="428.2" r="2.9"/>
<circle id="XMLID_254_" class="st5" cx="-44.1" cy="383.4" r="2.9"/>
<circle id="XMLID_253_" class="st5" cx="104.3" cy="139.4" r="2.9"/>
<circle id="XMLID_252_" class="st5" cx="-21.2" cy="138.7" r="2.9"/>
<circle id="XMLID_251_" class="st5" cx="-20.5" cy="169.5" r="2.9"/>
<circle id="XMLID_250_" class="st5" cx="52.2" cy="230.4" r="2.9"/>
<circle id="XMLID_249_" class="st5" cx="86.6" cy="185" r="2.9"/>
<circle id="XMLID_248_" class="st5" cx="124.4" cy="270.2" r="2.9"/>
<path id="XMLID_247_" class="st6" d="M117.6,229.5c3.5,1.4,7.4-0.3,8.8-3.8s-0.3-7.4-3.8-8.8c-3.5-1.4-7.4,0.3-8.8,3.8
	C112.4,224.1,114.1,228.1,117.6,229.5z"/>
<path id="XMLID_246_" class="st5" d="M106,310.6c1.5,0.6,3.1-0.1,3.7-1.6s-0.1-3.1-1.6-3.7c-1.5-0.6-3.1,0.1-3.7,1.6
	S104.5,310,106,310.6z"/>
<path id="XMLID_245_" class="st5" d="M139.3,372.5c1.5,0.6,3.1-0.1,3.7-1.6s-0.1-3.1-1.6-3.7s-3.1,0.1-3.7,1.6
	C137.1,370.2,137.9,371.9,139.3,372.5z"/>
<path id="XMLID_244_" class="st5" d="M41.5,489.1c1.5,0.6,3.1-0.1,3.7-1.6s-0.1-3.1-1.6-3.7s-3.1,0.1-3.7,1.6S40,488.6,41.5,489.1z"
	/>
<circle id="XMLID_243_" class="st5" cx="26.8" cy="377.9" r="2.9"/>
<circle id="XMLID_242_" class="st5" cx="177.8" cy="202.2" r="2.9"/>
<circle id="XMLID_241_" class="st5" cx="51.5" cy="329.4" r="2.9"/>
<circle id="XMLID_240_" class="st5" cx="46.3" cy="423.7" r="2.9"/>
<path id="XMLID_239_" class="st6" d="M-9.1,413.6c3.9,1.6,8.4-0.4,9.9-4.3c1.6-3.9-0.4-8.4-4.3-9.9c-3.9-1.6-8.4,0.4-9.9,4.3
	C-15,407.6-13.1,412.1-9.1,413.6z"/>
<circle id="XMLID_238_" class="st5" cx="-84.9" cy="420.4" r="2.9"/>
<circle id="XMLID_237_" class="st5" cx="-114.5" cy="442.4" r="2.9"/>
<circle id="XMLID_236_" class="st6" cx="-188.8" cy="336.7" r="6.8"/>
<circle id="XMLID_235_" class="st5" cx="-223.9" cy="344.1" r="2.9"/>
<circle id="XMLID_234_" class="st5" cx="-152.2" cy="321.4" r="2.9"/>
<circle id="XMLID_233_" class="st5" cx="-157" cy="215.9" r="2.9"/>
<circle id="XMLID_232_" class="st5" cx="-94.3" cy="174" r="2.9"/>
<circle id="XMLID_231_" class="st5" cx="-86.3" cy="99.2" r="2.9"/>
<circle id="XMLID_230_" class="st5" cx="-128.1" cy="75.9" r="2.9"/>
<circle id="XMLID_229_" class="st5" cx="-152.7" cy="132" r="2.9"/>
<circle id="XMLID_228_" class="st6" cx="-203.1" cy="203.3" r="4.5"/>
<circle id="XMLID_227_" class="st5" cx="-251.4" cy="218" r="2.9"/>
</svg>
