<?xml version="1.0" encoding="utf-8"?>
<!-- Generator: Adobe Illustrator 19.0.0, SVG Export Plug-In . SVG Version: 6.00 Build 0)  -->
<svg version="1.1" id="Layer_1" xmlns="http://www.w3.org/2000/svg" xmlns:xlink="http://www.w3.org/1999/xlink" x="0px" y="0px"
	 viewBox="0 0 256 256" style="enable-background:new 0 0 256 256;" xml:space="preserve">
<style type="text/css">
	.st0{opacity:0.8;}
	.st1{fill:#B11116;}
</style>
<g class="st0">
	<g>
		<path class="st1" d="M113.3,196.8l-3.1-2.8c-0.1-0.1-11.4-14.1-19-35.5c-0.6-1.7-1.3-4.1-2.2-7.4l-0.5-1.8l1.8-0.4
			c9.9-2.1,17.6-4.1,23.2-5.6l2.8-0.7l-0.6,2.8c-3.9,18-2.8,42.3-2.5,47L113.3,196.8z M92.9,152.1c0.6,2.3,1.2,4.1,1.6,5.4
			c4.8,13.4,11.1,23.9,14.9,29.5c-0.3-8.9-0.3-25.5,2.3-39.4C106.7,148.9,100.5,150.4,92.9,152.1z"/>
		<path class="st1" d="M175,121.1l0.5-3.2c0.2-1.2,0.3-2.3,0.5-3.4c0.6-4.1,1.1-7.4,1.3-9.6l0.1-1.1l1-0.4c11-4.7,15.1-7.2,16.6-8.4
			c-1-0.2-2.8-0.4-6.1-0.4c-3.8,0-7.6,0.3-7.6,0.3l-16,1.3l15.3-4.7c0.3-0.1,6.6-2,12.4-3c1.9-0.3,5.6-0.8,9.3-0.8
			c6.1,0,9.7,1.3,11,3.9c1.1,2.2,0.4,4.8-2,8c-4.5,5.8-18.8,13.3-30.1,18.6c-1.2,0.6-2,0.9-3.2,1.5L175,121.1z M180.7,106.4
			c-0.2,2.2-0.7,5.2-1.2,8.8c0,0.1,0,0.1,0,0.2c0.1,0,0.2-0.1,0.3-0.1c15.4-7.2,25.7-13.4,28.8-17.5c1.5-1.9,2.1-3.5,1.7-4.3
			c-0.5-1-2.8-2-7.9-2c-2.3,0-4.6,0.2-6.4,0.4c1.9,0.4,2.7,1.1,3,2c0.2,0.4,0.6,1.6-0.5,3C197.8,97.5,195.9,99.8,180.7,106.4z"/>
		<path class="st1" d="M143.1,196.8l0.2-4.3c0.2-3.2,1.4-31.6-3.3-50.3c-0.1-0.2-0.1-0.5-0.2-0.9c-0.7-3-2.5-11-6.9-14.9l-0.3-0.3
			c-1.3-1.1-3.6-3.3-6.1-3c-1.4,0.2-3,0.5-4.6,1c1.8-0.3,3.3-0.3,4.4-0.1c5.9,1.2,9.7,8.5,9.9,9.9l0.2,1.4l-1.3,0.5
			c-12.2,4.1-35.7,10.5-45,12.4l-2.1,0.4v0c-2,0.4-3.8,0.7-5.4,0.9c-1.2,0.2-2.8,0.4-4.5,0.7c-6.5,1.1-16.3,2.7-23.6,2.7
			c-3,0-5.3-0.3-7.1-0.8c-3.4-1.1-5.3-2.8-5.5-5.2c-0.3-2.9,1.9-6.2,6.7-10.1c4.3-3.5,9.4-6.5,10.9-7.3c7.2-4,16.6-7,17-7.1l6.2-2
			C78.8,98,77,70.5,88,62.8c3.4-2.4,7.1-3.5,11.1-3.5c5.3,0,10.5,2.1,15.6,4c3.2,1.3,6.2,2.4,9.2,3.1l3.2,0.7l-2.3,2.3
			c-0.2,0.2-3.9,3.8-8.6,7.1c10.6-4,22-11.7,22.2-11.8l0.2-0.1l0.2-0.1c1-0.4,2-0.8,3-1.2c5-2,10.2-4,15.6-4c4,0,7.6,1.1,11.1,3.5
			c6.6,4.5,9.3,16.5,8.1,35.6c-0.8,8.8-1.7,15.9-2.7,22.4l-0.1,0.6c-0.2,1.2-0.4,2.5-0.6,3.7l0.1-0.1l-1.4,6.6
			c-2.5,12.6-5.3,23.2-6.5,26.9c-7.3,23.1-19,35.4-19.1,35.5L143.1,196.8z M126.9,119.6c3.6,0,6.6,2.7,8,3.9l0.3,0.3
			c5.2,4.6,7.2,13.4,8,16.7c0.1,0.3,0.1,0.6,0.2,0.8c3.8,15.2,3.9,36,3.6,46.2c3.8-5.2,10.2-15.3,14.9-30.1
			c0.8-2.5,2.8-9.8,4.9-19.4l-0.1,0.1l1.6-7.3c0.2-0.7,0.3-1.5,0.5-2.2l0.1-0.4c0.5-2.7,1-5.4,1.4-8l0.1-0.6
			c1-6.3,1.8-13.1,2.6-21.5c1.1-17.5-1.1-28.7-6.6-32.5c-2.8-1.9-5.8-2.9-9.1-2.9c-4.7,0-9.6,1.9-14.3,3.8c-1,0.4-1.9,0.8-2.9,1.1
			c-2.2,1.5-21.6,14.2-33.8,14.6l-1.4,0l-0.4-1.3c-0.4-1.3,0.4-1.8,2.3-2.9c1.5-0.9,4-2.3,6-3.7c2.8-1.8,5.3-4,7.1-5.5
			c-2.2-0.7-4.4-1.6-6.5-2.4c-4.7-1.9-9.6-3.8-14.3-3.8c-3.3,0-6.3,0.9-9.1,2.9c-7.4,5.1-8.9,24.8-4.2,53.7l3.7-1.2l-3.5,2.2
			c0.8,4.6,1.7,9.5,2.8,14.6l0.4,1.7l-1.7,0.4c-9.5,2.3-22.1,5.1-27.9,5.1c-1.2,0-2-0.1-2.7-0.3c-1-0.4-1.7-1.1-1.9-2.1
			c-0.3-2,2-4.3,3.7-5.8c-8.1,4.8-13.8,10.1-13.6,12.7c0.1,1.1,1.7,1.8,3.1,2.2c1.4,0.4,3.5,0.7,6.1,0.7c7,0,16.6-1.6,23-2.7
			c1.8-0.3,3.3-0.6,4.6-0.7c2-0.3,4.5-0.7,7.3-1.3l0.6-0.1c9.1-1.9,29.9-7.5,42.1-11.5c-1.1-1.9-3.5-5.1-6.4-5.6
			c-0.3,0-0.6-0.1-1-0.1c-3.7,0-11.2,2.2-16.2,3.6c-1.7,0.5-3.1,0.9-4.1,1.2l-1.2-3.3c0.2-0.1,0.7-0.4,1.3-0.7
			c3.8-2.1,14-7.7,21.6-8.6C126.3,119.6,126.6,119.6,126.9,119.6z M59,138.7c0.2,0,0.4,0,0.6,0c4,0,13-1.6,25.4-4.6
			c-0.7-3.6-1.5-7.5-2.2-11.7l-5,3.2c-0.1,0.1-10.7,6.7-15.1,9.8C61.3,136.3,59.8,137.7,59,138.7z"/>
	</g>
</g>
</svg>
