<?xml version="1.0" encoding="utf-8"?>
<!-- Generator: Adobe Illustrator 19.0.0, SVG Export Plug-In . SVG Version: 6.00 Build 0)  -->
<svg version="1.1" id="Layer_1" xmlns="http://www.w3.org/2000/svg" xmlns:xlink="http://www.w3.org/1999/xlink" x="0px" y="0px"
	 viewBox="0 0 256 256" style="enable-background:new 0 0 256 256;" xml:space="preserve">
<style type="text/css">
	.st0{opacity:0.8;}
	.st1{fill:#B11116;}
</style>
<g class="st0">
	<g>
		<g>
			<g>
				<path class="st1" d="M152.5,116.1c-0.8,0-1.5-0.4-2-1c-0.8-1.1-0.5-2.6,0.6-3.4c9.5-6.8,7.2-20,7.2-20.2c0-0.1,0-0.3,0-0.5
					c0-3.4-2.7-6.2-6-6.3c-1.3,0.3-6.3,1.3-12.8,1.3c-6.7,0-12.5-1.1-13.8-1.4c-3.4,0.1-6.1,2.9-6.1,6.3c0,0.1,0,0.3,0,0.4
					c0,0.2-2.7,15.8,7.9,19.9c1.2,0.5,1.9,1.9,1.4,3.1c-0.5,1.2-1.9,1.9-3.1,1.4c-13.7-5.3-11.3-22.9-11-25.1
					c0.1-6,5.1-10.9,11.1-10.9c0.2,0,0.4,0,0.5,0.1c0.1,0,6.2,1.3,13.1,1.3c6.9,0.1,11.9-1.2,12-1.2c0.2-0.1,0.4-0.1,0.6-0.1
					c6.1,0,11,4.9,11.1,10.9c0.3,2.1,2.2,16.6-9.1,24.7C153.5,115.9,153,116.1,152.5,116.1z"/>
			</g>
		</g>
		<g>
			<g>
				<path class="st1" d="M145.8,143.8C145.8,143.8,145.7,143.8,145.8,143.8c-3.7,0-4.2-4.7-4.8-11.9c-0.3-3.6-1-12.1-2.7-12.9
					c-1.3,0.9-1.9,8.4-2.2,12c-0.5,7.1-0.9,12.8-5.1,12.8c0,0,0,0,0,0c-7.6,0-11.7-23.4-12-32.7c-0.1-1.3,1-2.4,2.3-2.5
					c1.3-0.1,2.5,1,2.5,2.3c0.5,12,4.3,24,6.7,27.3c0.4-1.8,0.7-5.1,0.8-7.5c0.6-8.1,1.2-16.4,7-16.4c0,0,0,0,0,0
					c5.9,0,6.7,8.8,7.4,17.3c0.2,1.9,0.4,4.2,0.6,5.9c1.3-2.5,3.4-8.4,6.3-22.9c0.3-1.3,1.5-2.2,2.8-1.9c1.3,0.3,2.2,1.5,1.9,2.8
					C152.3,141.6,148.7,143.8,145.8,143.8z"/>
			</g>
		</g>
	</g>
	<g>
		<g>
			<path class="st1" d="M138.8,166.6c-0.4,0-0.8-0.1-1.2-0.3l-45.3-26.2c-0.7-0.4-1.2-1.2-1.2-2.1V85.6c0-0.9,0.5-1.7,1.2-2.1
				l45.3-26.2c0.7-0.4,1.7-0.4,2.4,0l45.3,26.2c0.7,0.4,1.2,1.2,1.2,2.1V138c0,0.9-0.5,1.7-1.2,2.1l-45.3,26.2
				C139.7,166.5,139.3,166.6,138.8,166.6z M95.9,136.6l42.9,24.8l42.9-24.8V87l-42.9-24.8L95.9,87V136.6z"/>
		</g>
	</g>
	<g>
		<g>
			<path class="st1" d="M59.1,185.2c-0.4,0-0.8-0.1-1.2-0.3L37.5,173c-0.8-0.4-1.2-1.2-1.2-2.1v-23.6c0-0.9,0.5-1.7,1.2-2.1
				l20.5-11.8c0.7-0.4,1.7-0.4,2.4,0l20.5,11.8c0.8,0.4,1.2,1.2,1.2,2.1v23.6c0,0.9-0.5,1.7-1.2,2.1l-20.5,11.8
				C60,185.1,59.6,185.2,59.1,185.2z M41.1,169.5L59.1,180l18.1-10.4v-20.9l-18.1-10.4l-18.1,10.4V169.5z"/>
		</g>
	</g>
	<g>
		<g>
			<path class="st1" d="M98.3,199.9c-0.4,0-0.8-0.1-1.2-0.3l-10.7-6.2c-0.7-0.4-1.2-1.2-1.2-2.1V179c0-0.9,0.5-1.7,1.2-2.1l10.7-6.2
				c0.7-0.4,1.7-0.4,2.4,0l10.7,6.2c0.7,0.4,1.2,1.2,1.2,2.1v12.3c0,0.9-0.5,1.7-1.2,2.1l-10.7,6.2
				C99.2,199.8,98.8,199.9,98.3,199.9z M90.1,189.9l8.3,4.8l8.3-4.8v-9.5l-8.3-4.8l-8.3,4.8V189.9z"/>
		</g>
	</g>
	<g>
		<g>
			<path class="st1" d="M79.6,149.7c-0.8,0-1.5-0.4-2-1.1c-0.7-1.1-0.4-2.6,0.7-3.3l13.9-9.3c1.1-0.7,2.6-0.4,3.3,0.7
				c0.7,1.1,0.4,2.6-0.7,3.3L81,149.3C80.5,149.6,80.1,149.7,79.6,149.7z"/>
		</g>
	</g>
	<g>
		<g>
			<path class="st1" d="M205,90.5c-0.4,0-0.8-0.1-1.2-0.3l-12.4-7.1c-0.7-0.4-1.2-1.2-1.2-2.1V66.7c0-0.9,0.5-1.7,1.2-2.1l12.4-7.1
				c0.7-0.4,1.7-0.4,2.4,0l12.4,7.1c0.7,0.4,1.2,1.2,1.2,2.1V81c0,0.9-0.5,1.7-1.2,2.1l-12.4,7.1C205.8,90.4,205.4,90.5,205,90.5z
				 M195,79.6l10,5.7l10-5.7V68.1l-10-5.7l-10,5.7V79.6z"/>
		</g>
	</g>
	<g>
		<g>
			<path class="st1" d="M184.2,89c-0.8,0-1.5-0.4-2-1.1c-0.7-1.1-0.4-2.6,0.7-3.4l8.4-5.6c1.1-0.7,2.6-0.4,3.3,0.7
				c0.7,1.1,0.4,2.6-0.7,3.3l-8.4,5.6C185.1,88.9,184.7,89,184.2,89z"/>
		</g>
	</g>
	<g>
		<g>
			<path class="st1" d="M87.7,181.4c-0.6,0-1.2-0.2-1.7-0.7l-8.1-8.1c-0.9-0.9-0.9-2.5,0-3.4c0.9-0.9,2.5-0.9,3.4,0l8.1,8.1
				c0.9,0.9,0.9,2.5,0,3.4C88.9,181.2,88.3,181.4,87.7,181.4z"/>
		</g>
	</g>
</g>
</svg>
